<?xml version="1.0" encoding="iso-8859-1"?>
<!-- Generator: Adobe Illustrator 19.0.0, SVG Export Plug-In . SVG Version: 6.00 Build 0)  -->
<svg version="1.1" id="Capa_1" xmlns="http://www.w3.org/2000/svg" xmlns:xlink="http://www.w3.org/1999/xlink" x="0px" y="0px"
	 viewBox="0 0 480.096 480.096" style="enable-background:new 0 0 480.096 480.096;" xml:space="preserve">
<g>
	<g>
		<g>
			<path d="M171.154,304.614c-0.968-0.406-2.007-0.615-3.056-0.616h-96c-4.418,0-8,3.582-8,8s3.582,8,8,8h76.688L2.442,466.342
				c-3.178,3.07-3.266,8.134-0.196,11.312s8.134,3.266,11.312,0.196c0.067-0.064,0.132-0.13,0.196-0.196L160.098,331.31v76.688
				c0,4.418,3.582,8,8,8s8-3.582,8-8v-96c-0.005-1.049-0.214-2.087-0.616-3.056C174.67,306.983,173.113,305.426,171.154,304.614z"/>
			<path d="M477.754,2.342c-3.124-3.123-8.188-3.123-11.312,0L320.098,148.686V71.998c0-4.418-3.582-8-8-8s-8,3.582-8,8v96
				c0.005,1.049,0.214,2.087,0.616,3.056c0.812,1.959,2.369,3.516,4.328,4.328c0.969,0.402,2.007,0.611,3.056,0.616h96
				c4.418,0,8-3.582,8-8s-3.582-8-8-8H331.41L477.754,13.654C480.877,10.53,480.877,5.466,477.754,2.342z"/>
		</g>
	</g>
</g>
<g>
</g>
<g>
</g>
<g>
</g>
<g>
</g>
<g>
</g>
<g>
</g>
<g>
</g>
<g>
</g>
<g>
</g>
<g>
</g>
<g>
</g>
<g>
</g>
<g>
</g>
<g>
</g>
<g>
</g>
</svg>
